<svg width="17" height="17" viewBox="0 0 17 17" fill="none" xmlns="http://www.w3.org/2000/svg">
<path d="M10.9792 7.79166C11.2744 7.79166 11.5253 7.68836 11.7319 7.48176C11.9384 7.27516 12.0417 7.0243 12.0417 6.72916C12.0417 6.43402 11.9384 6.18315 11.7319 5.97655C11.5253 5.76996 11.2744 5.66666 10.9792 5.66666C10.6841 5.66666 10.4332 5.76996 10.2266 5.97655C10.02 6.18315 9.91675 6.43402 9.91675 6.72916C9.91675 7.0243 10.02 7.27516 10.2266 7.48176C10.4332 7.68836 10.6841 7.79166 10.9792 7.79166ZM6.02091 7.79166C6.31605 7.79166 6.56692 7.68836 6.77352 7.48176C6.98012 7.27516 7.08341 7.0243 7.08341 6.72916C7.08341 6.43402 6.98012 6.18315 6.77352 5.97655C6.56692 5.76996 6.31605 5.66666 6.02091 5.66666C5.72578 5.66666 5.47491 5.76996 5.26831 5.97655C5.06171 6.18315 4.95841 6.43402 4.95841 6.72916C4.95841 7.0243 5.06171 7.27516 5.26831 7.48176C5.47491 7.68836 5.72578 7.79166 6.02091 7.79166ZM8.50008 12.3958C9.30286 12.3958 10.0319 12.1686 10.6871 11.7141C11.3423 11.2595 11.8174 10.6604 12.1126 9.91666H4.88758C5.18272 10.6604 5.65789 11.2595 6.3131 11.7141C6.96831 12.1686 7.6973 12.3958 8.50008 12.3958ZM8.50008 15.5833C7.52022 15.5833 6.59939 15.3974 5.73758 15.0255C4.87578 14.6536 4.12612 14.1489 3.48862 13.5114C2.85112 12.8739 2.34644 12.1243 1.97456 11.2625C1.60269 10.4007 1.41675 9.47985 1.41675 8.49999C1.41675 7.52013 1.60269 6.5993 1.97456 5.73749C2.34644 4.87568 2.85112 4.12603 3.48862 3.48853C4.12612 2.85103 4.87578 2.34634 5.73758 1.97447C6.59939 1.60259 7.52022 1.41666 8.50008 1.41666C9.47994 1.41666 10.4008 1.60259 11.2626 1.97447C12.1244 2.34634 12.874 2.85103 13.5115 3.48853C14.149 4.12603 14.6537 4.87568 15.0256 5.73749C15.3975 6.5993 15.5834 7.52013 15.5834 8.49999C15.5834 9.47985 15.3975 10.4007 15.0256 11.2625C14.6537 12.1243 14.149 12.8739 13.5115 13.5114C12.874 14.1489 12.1244 14.6536 11.2626 15.0255C10.4008 15.3974 9.47994 15.5833 8.50008 15.5833ZM8.50008 14.1667C10.082 14.1667 11.422 13.6177 12.5199 12.5198C13.6178 11.4219 14.1667 10.0819 14.1667 8.49999C14.1667 6.91805 13.6178 5.57811 12.5199 4.4802C11.422 3.38228 10.082 2.83332 8.50008 2.83332C6.91814 2.83332 5.57821 3.38228 4.48029 4.4802C3.38237 5.57811 2.83341 6.91805 2.83341 8.49999C2.83341 10.0819 3.38237 11.4219 4.48029 12.5198C5.57821 13.6177 6.91814 14.1667 8.50008 14.1667Z" fill="#B1B1B1"/>
</svg>
