<svg width="28" height="30" viewBox="0 0 28 30" fill="none" xmlns="http://www.w3.org/2000/svg">
<path d="M8.16667 28.75L11.4333 11.125L9.33333 12V16.25H7V10.375L12.8917 7.6875C13.1639 7.5625 13.4507 7.48958 13.7521 7.46875C14.0535 7.44792 14.3403 7.48958 14.6125 7.59375C14.8847 7.69792 15.1424 7.84375 15.3854 8.03125C15.6285 8.21875 15.8278 8.45833 15.9833 8.75L17.15 10.75C17.6556 11.625 18.341 12.3437 19.2063 12.9062C20.0715 13.4687 21.0583 13.75 22.1667 13.75V16.25C20.8056 16.25 19.5903 15.9479 18.5208 15.3438C17.4514 14.7396 16.5375 13.9688 15.7792 13.0313L15.05 16.875L17.5 19.375V28.75H15.1667V20.625L12.7167 18.625L10.6167 28.75H8.16667ZM15.75 6.875C15.1083 6.875 14.559 6.63021 14.1021 6.14063C13.6451 5.65104 13.4167 5.0625 13.4167 4.375C13.4167 3.6875 13.6451 3.09896 14.1021 2.60938C14.559 2.11979 15.1083 1.875 15.75 1.875C16.3917 1.875 16.941 2.11979 17.3979 2.60938C17.8549 3.09896 18.0833 3.6875 18.0833 4.375C18.0833 5.0625 17.8549 5.65104 17.3979 6.14063C16.941 6.63021 16.3917 6.875 15.75 6.875Z" fill="#B1B1B1"/>
</svg>
