<svg width="15" height="15" viewBox="0 0 15 15" fill="none" xmlns="http://www.w3.org/2000/svg">
<path d="M5.55218 14.5833L5.26885 12.3167C5.11538 12.2576 4.97076 12.1868 4.83499 12.1042C4.69923 12.0215 4.56642 11.933 4.43656 11.8385L2.32926 12.7239L0.381348 9.35936L2.20531 7.97811C2.1935 7.89548 2.1876 7.81579 2.1876 7.73905V7.26093C2.1876 7.18419 2.1935 7.1045 2.20531 7.02186L0.381348 5.64061L2.32926 2.27603L4.43656 3.16145C4.56642 3.067 4.70218 2.97846 4.84385 2.89582C4.98551 2.81318 5.12718 2.74235 5.26885 2.68332L5.55218 0.416656H9.44801L9.73135 2.68332C9.88482 2.74235 10.0294 2.81318 10.1652 2.89582C10.301 2.97846 10.4338 3.067 10.5636 3.16145L12.6709 2.27603L14.6188 5.64061L12.7949 7.02186C12.8067 7.1045 12.8126 7.18419 12.8126 7.26093V7.73905C12.8126 7.81579 12.8008 7.89548 12.7772 7.97811L14.6011 9.35936L12.6532 12.7239L10.5636 11.8385C10.4338 11.933 10.298 12.0215 10.1563 12.1042C10.0147 12.1868 9.87301 12.2576 9.73135 12.3167L9.44801 14.5833H5.55218ZM6.79176 13.1667H8.19072L8.43864 11.2896C8.80461 11.1951 9.14402 11.0564 9.45687 10.8734C9.76972 10.6904 10.056 10.4691 10.3157 10.2094L12.0688 10.9354L12.7595 9.73124L11.2366 8.5802C11.2956 8.41492 11.3369 8.24079 11.3605 8.0578C11.3841 7.87482 11.3959 7.68888 11.3959 7.49999C11.3959 7.3111 11.3841 7.12516 11.3605 6.94218C11.3369 6.75919 11.2956 6.58506 11.2366 6.41978L12.7595 5.26874L12.0688 4.06457L10.3157 4.80832C10.056 4.5368 9.76972 4.30954 9.45687 4.12655C9.14402 3.94357 8.80461 3.80485 8.43864 3.71041L8.20843 1.83332H6.80947L6.56156 3.71041C6.19558 3.80485 5.85617 3.94357 5.54333 4.12655C5.23048 4.30954 4.9442 4.53089 4.68447 4.79061L2.93135 4.06457L2.24072 5.26874L3.76364 6.40207C3.70461 6.57916 3.66329 6.75624 3.63968 6.93332C3.61607 7.11041 3.60426 7.2993 3.60426 7.49999C3.60426 7.68888 3.61607 7.87187 3.63968 8.04895C3.66329 8.22603 3.70461 8.40312 3.76364 8.5802L2.24072 9.73124L2.93135 10.9354L4.68447 10.1917C4.9442 10.4632 5.23048 10.6904 5.54333 10.8734C5.85617 11.0564 6.19558 11.1951 6.56156 11.2896L6.79176 13.1667ZM7.53551 9.97916C8.22024 9.97916 8.80461 9.73714 9.28864 9.25311C9.77267 8.76909 10.0147 8.18471 10.0147 7.49999C10.0147 6.81527 9.77267 6.23089 9.28864 5.74686C8.80461 5.26284 8.22024 5.02082 7.53551 5.02082C6.83899 5.02082 6.25166 5.26284 5.77354 5.74686C5.29541 6.23089 5.05635 6.81527 5.05635 7.49999C5.05635 8.18471 5.29541 8.76909 5.77354 9.25311C6.25166 9.73714 6.83899 9.97916 7.53551 9.97916Z" fill="#B1B1B1"/>
</svg>
